# xmcd
#
# Track frame offsets:
#	150
#	22220
#	41042
#	65057
#	84335
#	102057
#	120380
#	138557
#	156912
#	174070
#	190650
#	205452
#	218895
#	235637
#	249255
#	266657
#	292960
#	313930
#	330195
#
# Disc length: 4593 seconds
# Revision: 0
# Processed by: cddbd v1.5.2PL0 Copyright (c) Steve Scherf et al.
# Submitted via: dBpowerAMP V12.0
#
DISCID=0911ef13
DTITLE=Various Artist - Greatest Hits of the Millennium: 80's volume 1
DYEAR=1999
DGENRE=Pop
TTITLE0=ABBA - The Winner Takes It All
TTITLE1=Spargo - You and Me
TTITLE2=Stephanie Mills - Never Knew Love Like This Before
TTITLE3=BZN - Pearlydumm
TTITLE4=Lipps Inc. - Funkytown
TTITLE5=Goombay Dance Band - Sun of Jamaica
TTITLE6=Roland Kaiser - Santa Maria
TTITLE7=Diana Ross - Upside Down
TTITLE8=Captain and Tennille - Do That to Me One More Time
TTITLE9=Kool and The Gang - Celebration
TTITLE10=The Nolans - I'm in the Mood for Dancing
TTITLE11=Stray Cats - Runaway Boys
TTITLE12=Dan Hartman - Relight My Fire
TTITLE13=Johnny Logan - What's Another Year
TTITLE14=The Gibson Brothers - Que Sera Mi Vida
TTITLE15=Godley and Creme - An Englishman in New York
TTITLE16=Garland Jeffreys - Matador
TTITLE17=Billy Preston and Syreeta - With You I'm Born Again
TTITLE18=Kelly Marie - Feels Like I'm in Love
EXTD=
EXTT0=
EXTT1=
EXTT2=
EXTT3=
EXTT4=
EXTT5=
EXTT6=
EXTT7=
EXTT8=
EXTT9=
EXTT10=
EXTT11=
EXTT12=
EXTT13=
EXTT14=
EXTT15=
EXTT16=
EXTT17=
EXTT18=
PLAYORDER=
